<svg width="22" height="28" viewBox="0 0 22 28" fill="none" xmlns="http://www.w3.org/2000/svg">
<path d="M18.9997 5.99996H16.333C16.333 3.05329 13.9463 0.666626 10.9997 0.666626C8.05301 0.666626 5.66634 3.05329 5.66634 5.99996H2.99967C1.53301 5.99996 0.333008 7.19996 0.333008 8.66663V24.6666C0.333008 26.1333 1.53301 27.3333 2.99967 27.3333H18.9997C20.4663 27.3333 21.6663 26.1333 21.6663 24.6666V8.66663C21.6663 7.19996 20.4663 5.99996 18.9997 5.99996ZM10.9997 3.33329C12.4663 3.33329 13.6663 4.53329 13.6663 5.99996H8.33301C8.33301 4.53329 9.53301 3.33329 10.9997 3.33329ZM18.9997 24.6666H2.99967V8.66663H5.66634V11.3333C5.66634 12.0666 6.26634 12.6666 6.99967 12.6666C7.73301 12.6666 8.33301 12.0666 8.33301 11.3333V8.66663H13.6663V11.3333C13.6663 12.0666 14.2663 12.6666 14.9997 12.6666C15.733 12.6666 16.333 12.0666 16.333 11.3333V8.66663H18.9997V24.6666Z" fill="#002F52"/>
</svg>
